<?xml version="1.0" encoding="utf-8"?>
<!-- Generator: Adobe Illustrator 18.1.0, SVG Export Plug-In . SVG Version: 6.00 Build 0)  -->
<!DOCTYPE svg PUBLIC "-//W3C//DTD SVG 1.1//EN" "http://www.w3.org/Graphics/SVG/1.1/DTD/svg11.dtd">
<svg version="1.1" id="other_copy" xmlns="http://www.w3.org/2000/svg" xmlns:xlink="http://www.w3.org/1999/xlink" x="0px" y="0px"
	 viewBox="0 0 65 42.3" enable-background="new 0 0 65 42.3" xml:space="preserve">
<g>
	<g>
		<g>
			<g>
				<g>
					<path fill="#FFFFFF" d="M53.3,21.2c0-10.9-9.3-19.8-20.8-19.8c-9.7,0-17.9,6.4-20.1,15c-6.2,0.9-11,6-11,12.2
						c0,6.8,5.8,12.4,13,12.4h38.9c5.7,0,10.4-4.4,10.4-9.9C63.7,25.6,59,21.2,53.3,21.2z"/>
					<path fill="#1176BD" d="M53.3,42.3H14.3C6.4,42.3,0,36.2,0,28.6c0-6.4,4.8-12.1,11.3-13.4C14.1,6.2,22.6,0,32.5,0
						c11.7,0,21.4,8.8,22.1,19.9C60.4,20.5,65,25.3,65,31.1C65,37.3,59.7,42.3,53.3,42.3z M32.5,2.7c-8.9,0-16.7,5.8-18.8,14
						l-0.2,0.9l-0.9,0.1c-5.6,0.8-9.9,5.5-9.9,10.9c0,6.1,5.2,11,11.6,11h38.9c5,0,9-3.8,9-8.6c0-4.7-4.1-8.6-9-8.6h-1.3v-1.3
						C51.9,11,43.2,2.7,32.5,2.7z"/>
				</g>
			</g>
		</g>
	</g>
	<polygon fill="#FC9E88" points="31.3,33.3 21.7,20 26.7,20 26.7,11.3 35.9,11.3 35.9,20 41,20 	"/>
</g>
</svg>
