<?xml version="1.0" encoding="utf-8"?>
<!-- Generator: Adobe Illustrator 18.1.0, SVG Export Plug-In . SVG Version: 6.00 Build 0)  -->
<!DOCTYPE svg PUBLIC "-//W3C//DTD SVG 1.1//EN" "http://www.w3.org/Graphics/SVG/1.1/DTD/svg11.dtd">
<svg version="1.1" id="other_copy" xmlns="http://www.w3.org/2000/svg" xmlns:xlink="http://www.w3.org/1999/xlink" x="0px" y="0px"
	 viewBox="0 0 168.7 137.3" enable-background="new 0 0 168.7 137.3" xml:space="preserve">
<g>
	<g>
		<g>
			<path fill="#FFFFFF" d="M138.3,55c0-28.4-24.1-51.5-53.9-51.5c-25.3,0-46.4,16.6-52.2,39C15.9,44.8,3.5,58.1,3.5,74.2
				c0,17.8,15.1,32.2,33.7,32.2h101.1c14.9,0,27-11.5,27-25.7C165.2,66.5,153.1,55,138.3,55z"/>
			<path fill="#1176BD" d="M138.3,109.9H37.2C16.7,109.9,0,93.9,0,74.2c0-16.7,12.5-31.3,29.3-34.8C36.5,16.1,58.8,0,84.4,0
				c30.5,0,55.5,22.9,57.3,51.6c15.2,1.6,27.1,14,27.1,29C168.7,96.8,155.1,109.9,138.3,109.9z M84.4,7C61.2,7,41.1,22,35.5,43.4
				l-0.6,2.2L32.6,46C18,48.1,7,60.2,7,74.2c0,15.8,13.5,28.7,30.2,28.7h101.1c12.9,0,23.5-10,23.5-22.2c0-12.3-10.5-22.2-23.5-22.2
				h-3.5V55C134.8,28.5,112.2,7,84.4,7z"/>
		</g>
	</g>
	<g>
		<polygon fill="#1176BD" points="89.2,98.6 52,61.8 58.8,55.4 96,92.2 		"/>
	</g>
	<g>
		<path fill="#FC9E88" d="M124.8,127.9c-3.6,3.6-9.5,3.6-13.1,0L79.1,95.1c-3.6-3.6-3.6-9.5,0-13.1l0,0c3.6-3.6,9.5-3.6,13.1,0
			l32.7,32.7C128.5,118.4,128.5,124.2,124.8,127.9L124.8,127.9z"/>
	</g>
	<g>
		
			<rect x="63.6" y="77.2" transform="matrix(-0.7071 0.7071 -0.7071 -0.7071 203.5833 88.5905)" fill="#5BB0EC" width="39.6" height="18.5"/>
	</g>
	<g>
		<polygon fill="#1176BD" points="58,67.8 44.3,60.8 37.3,47.1 43.9,40.5 57.6,47.5 64.6,61.2 		"/>
	</g>
	<path fill="#5BB0EC" d="M111.2,35.6c-12.8,0-23.1,10.4-23.1,23.1c0,12.8,10.4,23.1,23.1,23.1s23.1-10.4,23.1-23.1
		c0-3-0.6-5.8-1.6-8.4l-15,15c-3.6,3.6-9.5,3.6-13.1,0c-3.6-3.6-3.6-9.5,0-13.1l15-15C117,36.2,114.2,35.6,111.2,35.6"/>
	<g>
		<g>
			<path fill="#5BB0EC" d="M49.1,107.7c3.6-3.6,9.5-3.6,13.1,0c3.6,3.6,3.6,9.5,0,13.1l-15,15c2.6,1,5.5,1.6,8.4,1.6
				c12.8,0,23.1-10.4,23.1-23.1S68.5,91.1,55.7,91.1c-12.8,0-23.1,10.4-23.1,23.1c0,3,0.6,5.8,1.6,8.4L49.1,107.7z"/>
		</g>
	</g>
</g>
</svg>
