<?xml version="1.0" encoding="utf-8"?><!--Generator: Adobe Illustrator 18.1.0, SVG Export Plug-In. SVG Version: 6.00, Build 0--><!DOCTYPE svg PUBLIC "-//W3C//DTD SVG 1.1//EN" "http://www.w3.org/Graphics/SVG/1.1/DTD/svg11.dtd"><svg version="1.1" id="other_copy" xmlns="http://www.w3.org/2000/svg" xmlns:xlink="http://www.w3.org/1999/xlink" x="0px" y="0px" viewBox="0 0 220.8 220.8" enable-background="new 0 0 220.8 220.8" xml:space="preserve"><circle fill="#E0E0E0" cx="110.4" cy="110.4" r="110.4"/><g><circle fill="#FCFCFC" cx="110.4" cy="110.4" r="58.2"/><g><g><path fill="#1176BD" d="M110.4,46.4c-35.3,0-64,28.7-64,64s28.7,64,64,64s64-28.7,64-64S145.7,46.4,110.4,46.4z M110.4,166.4c-30.9,0-56-25.1-56-56s25.1-56,56-56s56,25.1,56,56S141.3,166.4,110.4,166.4z"/></g></g><g id="Corner_5_"><g><path fill="#5BB0EC" d="M125.9,116.2c3.2-3.2,3.2-8.4,0-11.7L92.5,84.1v52.5L125.9,116.2z"/></g></g></g></svg>