<?xml version="1.0" encoding="utf-8"?><!--Generator: Adobe Illustrator 18.1.0, SVG Export Plug-In. SVG Version: 6.00, Build 0--><!DOCTYPE svg PUBLIC "-//W3C//DTD SVG 1.1//EN" "http://www.w3.org/Graphics/SVG/1.1/DTD/svg11.dtd"><svg version="1.1" id="other_copy" xmlns="http://www.w3.org/2000/svg" xmlns:xlink="http://www.w3.org/1999/xlink" x="0px" y="0px" viewBox="0 0 201 201" enable-background="new 0 0 201 201" xml:space="preserve"><g><circle fill="#DFDFDF" cx="100.5" cy="100.5" r="100.5"/></g><g><path fill="#FFFFFF" d="M169,97.4c1.3,39.6-31.1,72-70.8,70.8C62.4,167,33.1,137.8,32,101.9c-1.3-39.6,31.1-72,70.8-70.8C138.6,32.3,167.9,61.5,169,97.4z"/></g><g><g><circle fill="#0074C4" cx="71.5" cy="102.7" r="10.4"/><path fill="#0074C4" d="M55.9,135.3c3.2-8.1,10.7-11.1,16.6-11.1c5.9,0,13.4,2.9,16.6,11l8.5,0c-1.6-5.9-4.9-10.7-9.6-14.1c-4.4-3.2-9.9-5-15.6-5c-5.6,0-11.2,1.8-15.5,5c-4.7,3.4-7.9,8.3-9.5,14.2L55.9,135.3z"/></g><g><circle fill="#FC9E88" cx="127.5" cy="102.6" r="10.4"/><path fill="#FC9E88" d="M111.9,135.2c3.2-8.1,10.7-11.1,16.6-11.1c5.9,0,13.4,2.9,16.6,11l8.5,0c-1.6-5.9-4.9-10.7-9.6-14.1c-4.4-3.2-9.9-5-15.6-5c-5.6,0-11.2,1.8-15.5,5c-4.7,3.4-7.9,8.3-9.5,14.2L111.9,135.2z"/></g><g><circle fill="#5BB0EC" cx="99.5" cy="53.9" r="10.4"/><path fill="#5BB0EC" d="M83.5,86.5c3.2-8.1,10.7-11.1,16.6-11.1c5.9,0,13.4,2.9,16.6,11l8.5,0c-1.6-5.9-4.9-10.7-9.6-14.1c-4.4-3.2-9.9-5-15.6-5c-5.6,0-11.2,1.8-15.5,5c-4.7,3.4-7.9,8.3-9.5,14.2L83.5,86.5z"/></g></g></svg>