<?xml version="1.0" encoding="utf-8"?><!--Generator: Adobe Illustrator 18.1.0, SVG Export Plug-In. SVG Version: 6.00, Build 0--><!DOCTYPE svg PUBLIC "-//W3C//DTD SVG 1.1//EN" "http://www.w3.org/Graphics/SVG/1.1/DTD/svg11.dtd"><svg version="1.1" id="Layer_1" xmlns="http://www.w3.org/2000/svg" xmlns:xlink="http://www.w3.org/1999/xlink" x="0px" y="0px" viewBox="0 0 220.8 220.8" enable-background="new 0 0 220.8 220.8" xml:space="preserve"><circle fill="#E0E0E0" cx="110.4" cy="110.4" r="110.4"/><g><g><g><g id="File_1_"><g><path fill="#1176BD" d="M150.3,148V82.1l-31.2-31.2h-59c-3.8,0-6.9,3.1-6.9,6.9V148c0,3.8,3.1,6.9,6.9,6.9h83.3C147.2,155,150.3,151.9,150.3,148z"/></g></g><g id="Container_1_"><g><path fill="#FFFFFF" d="M143.3,144.6v-59l-27.8-27.8h-52c-1.9,0-3.5,1.6-3.5,3.5v83.3c0,1.9,1.6,3.5,3.5,3.5h76.3C141.8,148,143.3,146.5,143.3,144.6z"/></g></g><g id="Corner_1_"><g><path fill="#5BB0EC" d="M150.3,82.1l-31.2-31.2v24.3c0,3.8,3.1,6.9,6.9,6.9H150.3z"/></g></g><g id="Text_1_"><g><path fill="#5BB0EC" d="M128.6,91.2c0-1.9-1.6-3.5-3.5-3.5H76.6c-1.9,0-3.5,1.6-3.5,3.5s1.6,3.5,3.5,3.5h48.6C127.1,94.6,128.6,93.1,128.6,91.2z M73.1,105c0,1.9,1.6,3.5,3.5,3.5h27.8c1.9,0,3.5-1.6,3.5-3.5c0-1.9-1.6-3.5-3.5-3.5H76.6C74.7,101.6,73.1,103.1,73.1,105z M73.1,118.9c0,1.9,1.6,3.5,3.5,3.5h48.6c1.9,0,3.5-1.6,3.5-3.5s-1.6-3.5-3.5-3.5H76.6C74.7,115.4,73.1,117,73.1,118.9z"/></g></g></g><path fill="none" stroke="#BDB9B9" stroke-width="1.8255" stroke-linecap="round" stroke-miterlimit="10" d="M109.2,120"/><path fill="none" stroke="#BDB9B9" stroke-width="1.8255" stroke-linecap="round" stroke-miterlimit="10" d="M109.3,106.9"/><path fill="none" stroke="#BDB9B9" stroke-width="1.8255" stroke-linecap="round" stroke-miterlimit="10" d="M96.5,106.9"/><path fill="none" stroke="#BDB9B9" stroke-width="2" stroke-linecap="round" stroke-miterlimit="10" d="M89.2,113.6"/><path fill="none" stroke="#BDB9B9" stroke-width="1.8255" stroke-linecap="round" stroke-miterlimit="10" d="M98.8,117.7"/></g><g><g><g id="File_2_"><g><path fill="#1176BD" d="M167.6,162.9V97l-31.2-31.2h-59c-3.8,0-6.9,3.1-6.9,6.9v90.2c0,3.8,3.1,6.9,6.9,6.9h83.3C164.5,169.9,167.6,166.8,167.6,162.9z"/></g></g><g id="Container_2_"><g><path fill="#FFFFFF" d="M160.7,159.5v-59l-27.8-27.8h-52c-1.9,0-3.5,1.6-3.5,3.5v83.3c0,1.9,1.6,3.5,3.5,3.5h76.3C159.1,162.9,160.7,161.4,160.7,159.5z"/></g></g><g id="Corner_2_"><g><path fill="#5BB0EC" d="M167.6,97l-31.2-31.2v24.3c0,3.8,3.1,6.9,6.9,6.9H167.6z"/></g></g><g id="Text_2_"><g><path fill="#FC9E88" d="M146,106c0-1.9-1.6-3.5-3.5-3.5H93.9c-1.9,0-3.5,1.6-3.5,3.5c0,1.9,1.6,3.5,3.5,3.5h48.6C144.4,109.5,146,108,146,106z M90.5,119.9c0,1.9,1.6,3.5,3.5,3.5h27.8c1.9,0,3.5-1.6,3.5-3.5c0-1.9-1.6-3.5-3.5-3.5H93.9C92,116.5,90.5,118,90.5,119.9z M90.5,133.8c0,1.9,1.6,3.5,3.5,3.5h48.6c1.9,0,3.5-1.6,3.5-3.5c0-1.9-1.6-3.5-3.5-3.5H93.9C92,130.3,90.5,131.9,90.5,133.8z"/></g></g></g><path fill="none" stroke="#BDB9B9" stroke-width="1.8255" stroke-linecap="round" stroke-miterlimit="10" d="M126.5,134.9"/><path fill="none" stroke="#BDB9B9" stroke-width="1.8255" stroke-linecap="round" stroke-miterlimit="10" d="M126.6,121.8"/><path fill="none" stroke="#BDB9B9" stroke-width="1.8255" stroke-linecap="round" stroke-miterlimit="10" d="M113.9,121.8"/><path fill="none" stroke="#BDB9B9" stroke-width="2" stroke-linecap="round" stroke-miterlimit="10" d="M106.6,128.5"/></g></g></svg>