<?xml version="1.0" encoding="utf-8"?><!--Generator: Adobe Illustrator 18.1.0, SVG Export Plug-In. SVG Version: 6.00, Build 0--><!DOCTYPE svg PUBLIC "-//W3C//DTD SVG 1.1//EN" "http://www.w3.org/Graphics/SVG/1.1/DTD/svg11.dtd"><svg version="1.1" id="other" xmlns="http://www.w3.org/2000/svg" xmlns:xlink="http://www.w3.org/1999/xlink" x="0px" y="0px" viewBox="0 0 220.8 220.8" enable-background="new 0 0 220.8 220.8" xml:space="preserve"><circle fill="#E0E0E0" cx="110.4" cy="110.4" r="110.4"/><rect id="_x3C_Slice_x3E__100_" x="60.3" y="29.1" fill="none" width="100.1" height="162.5"/><g><path fill="#FFFFFF" d="M178.9,108.1c1.3,39.6-31.1,72-70.8,70.8c-35.9-1.1-65.1-30.4-66.3-66.3C40.6,73,73,40.6,112.6,41.9C148.5,43,177.8,72.2,178.9,108.1z"/></g><g><g><path fill="none" stroke="#BDB9B9" stroke-width="1.8255" stroke-linecap="round" stroke-miterlimit="10" d="M132.5,129.1"/><path fill="none" stroke="#BDB9B9" stroke-width="1.8255" stroke-linecap="round" stroke-miterlimit="10" d="M132.6,117.1"/><path fill="none" stroke="#BDB9B9" stroke-width="1.8255" stroke-linecap="round" stroke-miterlimit="10" d="M120.9,117.1"/><path fill="none" stroke="#BDB9B9" stroke-width="2" stroke-linecap="round" stroke-miterlimit="10" d="M114.2,123.3"/><path fill="none" stroke="#BDB9B9" stroke-width="1.8255" stroke-linecap="round" stroke-miterlimit="10" d="M122.9,127"/></g><path fill="#FC9E88" stroke="#1176BD" stroke-width="7" stroke-miterlimit="10" d="M118.9,138.8h-17c-4.5,0-6-1.4-6.9-7.4c-1.2-7.2-3.2-14.6-10.5-27.8c-2.5-4.4-4-9.4-4-14.9c0-16.5,13.4-29.9,29.9-29.9s29.9,13.4,29.9,29.9c0,5.4-1.5,10.5-4,14.9c-7.4,13.3-9.3,20.7-10.5,27.8C124.7,137.5,123.4,138.8,118.9,138.8L118.9,138.8z M117.3,157.7c-1.3,2.6-4,4.3-7,4.3s-5.8-1.8-7-4.3H117.3L117.3,157.7z M121,146.8H99.5c-0.8,0-1.3-0.7-1.3-1.5v-1.9c0-0.9,0.6-1.5,1.3-1.5h21.4c0.8,0,1.3,0.7,1.3,1.5v1.9C122.3,146.1,121.8,146.8,121,146.8L121,146.8z M121,154.8H99.5c-0.8,0-1.3-0.7-1.3-1.5v-1.9c0-0.9,0.6-1.5,1.3-1.5h21.4c0.8,0,1.3,0.7,1.3,1.5v1.9C122.3,154,121.8,154.8,121,154.8L121,154.8z"/><path fill="#FCFCFC" d="M119.7,146.7h-18.6c-1.3,0-2.4-1.1-2.4-2.4l0,0c0-1.3,1.1-2.4,2.4-2.4h18.6c1.3,0,2.4,1.1,2.4,2.4l0,0C122.1,145.6,121,146.7,119.7,146.7z"/><path fill="#FCFCFC" d="M119.7,154.6h-18.6c-1.3,0-2.4-1.1-2.4-2.4v0c0-1.3,1.1-2.4,2.4-2.4h18.6c1.3,0,2.4,1.1,2.4,2.4v0C122.1,153.5,121,154.6,119.7,154.6z"/></g></svg>