<?xml version="1.0" encoding="utf-8"?><!--Generator: Adobe Illustrator 18.1.0, SVG Export Plug-In. SVG Version: 6.00, Build 0--><!DOCTYPE svg PUBLIC "-//W3C//DTD SVG 1.1//EN" "http://www.w3.org/Graphics/SVG/1.1/DTD/svg11.dtd"><svg version="1.1" id="cores_and_modules_modified" xmlns="http://www.w3.org/2000/svg" xmlns:xlink="http://www.w3.org/1999/xlink" x="0px" y="0px" viewBox="0 0 201 201" enable-background="new 0 0 201 201" xml:space="preserve"><g><circle fill="#DFDFDF" cx="100.5" cy="100.5" r="100.5"/></g><g><path fill="#0074C4" d="M84,70.1c9.4,18.3-8.8,36.5-27.1,27.1c-2.9-1.5-5.3-3.9-6.8-6.8c-9.4-18.3,8.8-36.5,27.1-27.1C80,64.8,82.4,67.2,84,70.1z"/><path fill="#0074C4" d="M37.8,141.4c5.9-15.2,20-20.8,31.1-20.8c11.1,0,25.2,5.5,31.2,20.7l15.9,0c-3-11-9.2-20.2-17.9-26.6c-8.3-6-18.6-9.3-29.2-9.3c-10.6,0-20.9,3.4-29.2,9.4c-8.7,6.4-14.9,15.6-17.8,26.6L37.8,141.4z"/><g><rect x="92.3" y="67.4" fill="#FFFFFF" width="83.8" height="55.8"/><path fill="#5BB0EC" d="M169.2,74.4v41.8H99.3V74.4H169.2 M176.2,67.4H92.3v55.8h83.8V67.4L176.2,67.4z"/></g><g><path fill="#FC9E88" d="M140.9,85c4.2,7.5-3.4,15.1-10.9,10.9c-0.9-0.5-1.7-1.3-2.3-2.3c-4.2-7.5,3.4-15.1,10.9-10.9C139.6,83.2,140.4,84,140.9,85z"/><path fill="#FC9E88" d="M121.8,114.5c2.4-6,8-8.3,12.4-8.3c4.4,0,10,2.2,12.4,8.2l6.3,0c-1.2-4.4-3.6-8-7.1-10.6c-3.3-2.4-7.4-3.7-11.6-3.7c-4.2,0-8.3,1.3-11.6,3.8c-3.5,2.6-5.9,6.2-7.1,10.6L121.8,114.5z"/></g></g></svg>