<?xml version="1.0" encoding="utf-8"?><!--Generator: Adobe Illustrator 16.0.0, SVG Export Plug-In. SVG Version: 6.00, Build 0--><!DOCTYPE svg PUBLIC "-//W3C//DTD SVG 1.1//EN" "http://www.w3.org/Graphics/SVG/1.1/DTD/svg11.dtd"><svg version="1.1" id="Layer_1" xmlns="http://www.w3.org/2000/svg" xmlns:xlink="http://www.w3.org/1999/xlink" x="0px" y="0px" width="615px" height="615px" viewBox="-0.5 87.5 615 615" enable-background="new -0.5 87.5 615 615" xml:space="preserve"><g opacity="0.75"><g opacity="0.3"><g opacity="0.4"><path fill="#999999" d="M165.7,482.4c0-34.8-28.5-63.4-60.8-66.3v17.3c21.1,2.8,43.7,23.7,43.7,49c0,25.3-22.6,46.2-43.7,49v17.3C137,545.9,165.7,517.2,165.7,482.4z"/><path fill="#999999" d="M47.3,482.4c0-25.3,19.5-46,43.4-49v-17.3c-33.7,2.9-60.6,31.6-60.6,66.3s27,63.3,60.6,66.3v-17.3C66.8,528.5,47.3,507.7,47.3,482.4z"/><path fill="#999999" d="M18.1,487H1c2.7,49.1,39.2,87.9,89.7,90.8v-17.3C52.8,557.8,20.8,526.3,18.1,487z"/><path fill="#999999" d="M1,474.4h17.1c2.7-35.1,34.7-67.2,72.6-70.2v-17.1C40.2,390.1,3.8,428.1,1,474.4z"/><path fill="#999999" d="M59.3,474.4h17.5c1.8-4.2,7-9.5,14-11.5v-17.5C76.7,447.9,61.6,460.4,59.3,474.4z"/><path fill="#999999" d="M76.7,487H59.1c2.2,18.2,17.5,30,31.6,32.6v-17.5C83.7,500.1,78.5,494.1,76.7,487z"/></g><g opacity="0.4"><path fill="#999999" d="M104.7,387.1v17.1c35.1,2.8,67,35.1,69.9,70.2h17.3C188.8,428.1,151.1,389.9,104.7,387.1z"/><path fill="#999999" d="M104.7,560.7V578c46.3-2.8,84.2-41.7,87.2-90.8h-17.1C171.8,526.3,139.8,557.9,104.7,560.7z"/><path fill="#999999" d="M104.7,445.2v17.5c1.4,2,9.3,4.6,11.4,11.7h17.5C131,459,118.8,447.7,104.7,445.2z"/><path fill="#999999" d="M104.7,502.2v17.5c14-2.5,26.4-14.5,28.9-32.7h-17.5C114.1,494.1,106.1,500.2,104.7,502.2z"/></g></g><g opacity="0.3"><g opacity="0.4"><path fill="#999999" d="M312.3,440c0-51.2-39.2-93.5-89.7-97.7v25.4c35.1,4.2,64.4,35,64.4,72.3s-29.3,68.1-64.4,72.3v25.4C273.2,533.5,312.3,491.3,312.3,440z"/><path fill="#999999" d="M141.8,440c0-37.2,30.3-67.9,64-72.3v-25.3c-49.1,4.5-89.3,46.6-89.3,97.7s40.1,93.2,89.3,97.7v-25.4C172.1,508,141.8,477.2,141.8,440z"/><path fill="#999999" d="M99.8,446.3H74.6c3.9,73,62.6,130.1,131.4,134.5v-25.4C149.6,551.1,103.6,508.1,99.8,446.3z"/><path fill="#999999" d="M74.6,430.9H100c3.9-54.7,51.2-101.8,106-106.1v-25.4C137,303.7,78.6,359.3,74.6,430.9z"/><path fill="#999999" d="M160.3,430.9h25.8c2.8-7,10-16.7,19.8-19.8v-25.8C181.9,389.2,163.8,408.4,160.3,430.9z"/><path fill="#999999" d="M186,446.3h-25.8c3.4,26.7,21.8,44.6,45.6,48.6v-26C196,466,188.7,459,186,446.3z"/></g><g opacity="0.4"><path fill="#999999" d="M222.6,299.4v25.4c56.1,4.1,103.6,48.6,107.8,106.1h25.3C351.5,359.3,295.6,303.6,222.6,299.4z"/><path fill="#999999" d="M222.6,555.4v25.4c73-4.2,129-61.5,133.2-134.5h-25.4C326.4,508.1,278.8,551.3,222.6,555.4z"/><path fill="#999999" d="M222.6,385.3v25.8c11.2,2.8,18.5,10,21.5,19.8h25.8C266.2,408.4,247.9,388.8,222.6,385.3z"/><path fill="#999999" d="M222.6,469.1v26c25.3-3.6,43.7-22,47.4-48.7h-25.8C241.3,459,233.9,466.3,222.6,469.1z"/></g></g><g opacity="0.3"><g opacity="0.4"><path fill="#999999" d="M496.4,395.8c0-66.5-47.6-121.3-116.4-126.9v33c46.3,5.5,83.7,45.5,83.7,93.8c0,48.3-37.3,88.4-83.7,93.8v33C448.6,517.1,496.4,462.3,496.4,395.8z"/><path fill="#999999" d="M272.9,395.8c0-48.3,41-88.2,83.1-93.8v-33C292.8,274.8,240,329.6,240,395.8c0,66.3,52.8,121,115.9,126.8v-33C313.9,484,272.9,444.1,272.9,395.8z"/><path fill="#999999" d="M219.8,407H187c5.1,91.2,77.9,165.8,169.1,171.5v-33C283,540,224.7,480,219.8,407z"/><path fill="#999999" d="M186.8,386h32.8C224.9,310.2,283,251.6,356,246v-32.8C264.7,218.8,192.2,291.9,186.8,386z"/><path fill="#999999" d="M298.3,386h33.5c3.6-14,14.5-23.9,24.3-27.7v-33.7C325.1,329.7,302.8,355.1,298.3,386z"/><path fill="#999999" d="M331.7,407h-33.4c4.4,32.3,27,54.9,57.8,59.9v-33.7C346.2,429.5,335.1,421.1,331.7,407z"/></g><g opacity="0.4"><path fill="#999999" d="M379.9,213.2V246c75.8,5.3,133.8,64.1,139.4,139.9h32.8C546.5,291.9,471.1,218.7,379.9,213.2z"/><path fill="#999999" d="M379.9,545.6v33c91.2-5.5,166.9-80.3,172.4-171.5h-32.8C513.9,481.4,455.6,540.2,379.9,545.6z"/><path fill="#999999" d="M379.9,324.6v33.5c16.8,3.6,23.4,13.8,27.2,27.8h33.5C435.7,352.3,410.7,329.3,379.9,324.6z"/><path fill="#999999" d="M379.9,433.6v33.7c30.9-4.8,56.1-27.8,60.9-60.1h-33.5C403.4,421.1,396.7,429.8,379.9,433.6z"/></g></g><g opacity="0.3"><g opacity="0.4"><path fill="#999999" d="M583.4,470.8c0-39.3-33.5-71.6-68.6-74.8v19.4c22.5,3.2,49.3,26.8,49.3,55.3c0,28.5-26.8,52.2-49.3,55.3v19.5C549.7,542.3,583.4,509.9,583.4,470.8z"/><path fill="#999999" d="M448.8,470.8c0-28.5,22.3-51.9,49-55.3v-19.5c-40.7,3.4-68.4,35.7-68.4,74.8s27.7,71.4,68.4,74.8v-19.5C471.1,522.7,448.8,499.3,448.8,470.8z"/><path fill="#999999" d="M416.9,474.4h-19.4c2.9,54.7,48.4,100.8,100.4,104.2v-19.4C455.6,555.8,419.9,522.1,416.9,474.4z"/><path fill="#999999" d="M397.5,466h19.4c3.1-44.9,38.9-80.3,81-83.5v-19.4C445.8,366.3,400.6,408.4,397.5,466z"/><path fill="#999999" d="M463.2,466H483c2.1-7,7.9-15.2,14.9-17.4v-19.8C480.9,431.7,465.9,446.3,463.2,466z"/><path fill="#999999" d="M482.9,474.4h-19.8c2.5,19.7,17.8,35.4,34.7,38.3v-19.8C490.7,490.6,485,487,482.9,474.4z"/></g><g opacity="0.4"><path fill="#999999" d="M514.6,363v19.4c39.3,3.1,75.7,38.7,78.9,83.7H613C609.6,408.4,563.7,366.2,514.6,363z"/><path fill="#999999" d="M514.6,559.1v19.4c49.1-3.2,95.2-49.4,98.4-104.2h-19.4C590.4,522.1,553.9,556,514.6,559.1z"/><path fill="#999999" d="M514.6,428.8v19.8c4.2,2.2,10.5,10.5,12.8,17.5h19.8C544.2,446.3,530,431.5,514.6,428.8z"/><path fill="#999999" d="M514.6,492.9v19.8c15.4-2.8,29.8-18.8,32.6-38.5h-19.8C525.3,487,518.8,490.8,514.6,492.9z"/></g></g></g></svg>