<?xml version="1.0" encoding="utf-8"?>
<!-- Generator: Adobe Illustrator 18.1.0, SVG Export Plug-In . SVG Version: 6.00 Build 0)  -->
<!DOCTYPE svg PUBLIC "-//W3C//DTD SVG 1.1//EN" "http://www.w3.org/Graphics/SVG/1.1/DTD/svg11.dtd">
<svg version="1.1" id="other_copy" xmlns="http://www.w3.org/2000/svg" xmlns:xlink="http://www.w3.org/1999/xlink" x="0px" y="0px"
	 viewBox="0 0 114.5 119" enable-background="new 0 0 114.5 119" xml:space="preserve">
<g>
	<g>
		<g>
			<g id="File_4_">
				<g>
					<path fill="#1176BD" d="M97.2,97.2V31.2L65.9,0l-59,0C3.1,0,0,3.1,0,6.9l0,90.2c0,3.8,3.1,6.9,6.9,6.9h83.3
						C94,104.1,97.2,101,97.2,97.2z"/>
				</g>
			</g>
			<g id="Container_4_">
				<g>
					<path fill="#FFFFFF" d="M90.2,93.7v-59L62.5,6.9h-52c-1.9,0-3.5,1.6-3.5,3.5v83.3c0,1.9,1.6,3.5,3.5,3.5h76.3
						C88.7,97.2,90.2,95.6,90.2,93.7z"/>
				</g>
			</g>
			<g id="Corner_4_">
				<g>
					<path fill="#5BB0EC" d="M97.2,31.2L65.9,0v24.3c0,3.8,3.1,6.9,6.9,6.9H97.2z"/>
				</g>
			</g>
			<g id="Text_4_">
				<g>
					<path fill="#5BB0EC" d="M75.5,40.3c0-1.9-1.6-3.5-3.5-3.5H23.4c-1.9,0-3.5,1.6-3.5,3.5s1.6,3.5,3.5,3.5H72
						C73.9,43.7,75.5,42.2,75.5,40.3z M20,54.1c0,1.9,1.6,3.5,3.5,3.5h27.8c1.9,0,3.5-1.6,3.5-3.5s-1.6-3.5-3.5-3.5H23.4
						C21.5,50.7,20,52.2,20,54.1z M20,68c0,1.9,1.6,3.5,3.5,3.5H72c1.9,0,3.5-1.6,3.5-3.5s-1.6-3.5-3.5-3.5H23.4
						C21.5,64.6,20,66.1,20,68z"/>
				</g>
			</g>
		</g>
		<path fill="none" stroke="#BDB9B9" stroke-width="1.8255" stroke-linecap="round" stroke-miterlimit="10" d="M56,69.1"/>
		<path fill="none" stroke="#BDB9B9" stroke-width="1.8255" stroke-linecap="round" stroke-miterlimit="10" d="M56.1,56"/>
		<path fill="none" stroke="#BDB9B9" stroke-width="1.8255" stroke-linecap="round" stroke-miterlimit="10" d="M43.4,56"/>
		<path fill="none" stroke="#BDB9B9" stroke-width="2" stroke-linecap="round" stroke-miterlimit="10" d="M36.1,62.7"/>
		<path fill="none" stroke="#BDB9B9" stroke-width="1.8255" stroke-linecap="round" stroke-miterlimit="10" d="M45.7,66.8"/>
	</g>
	<g>
		<g>
			<g id="File_3_">
				<g>
					<path fill="#1176BD" d="M114.5,112.1V46.1L83.3,14.9h-59c-3.8,0-6.9,3.1-6.9,6.9v90.2c0,3.8,3.1,6.9,6.9,6.9h83.3
						C111.4,119,114.5,115.9,114.5,112.1z"/>
				</g>
			</g>
			<g id="Container_3_">
				<g>
					<path fill="#FFFFFF" d="M107.6,108.6v-59L79.8,21.8h-52c-1.9,0-3.5,1.6-3.5,3.5v83.3c0,1.9,1.6,3.5,3.5,3.5h76.3
						C106,112.1,107.6,110.5,107.6,108.6z"/>
				</g>
			</g>
			<g id="Corner_3_">
				<g>
					<path fill="#5BB0EC" d="M114.5,46.1L83.3,14.9v24.3c0,3.8,3.1,6.9,6.9,6.9H114.5z"/>
				</g>
			</g>
			<g id="Text_3_">
				<g>
					<path fill="#FC9E88" d="M92.8,55.2c0-1.9-1.6-3.5-3.5-3.5H40.8c-1.9,0-3.5,1.6-3.5,3.5c0,1.9,1.6,3.5,3.5,3.5h48.6
						C91.3,58.6,92.8,57.1,92.8,55.2z M37.3,69c0,1.9,1.6,3.5,3.5,3.5h27.8c1.9,0,3.5-1.6,3.5-3.5c0-1.9-1.6-3.5-3.5-3.5H40.8
						C38.9,65.6,37.3,67.1,37.3,69z M37.3,82.9c0,1.9,1.6,3.5,3.5,3.5h48.6c1.9,0,3.5-1.6,3.5-3.5s-1.6-3.5-3.5-3.5H40.8
						C38.9,79.4,37.3,81,37.3,82.9z"/>
				</g>
			</g>
		</g>
		<path fill="none" stroke="#BDB9B9" stroke-width="1.8255" stroke-linecap="round" stroke-miterlimit="10" d="M73.4,84"/>
		<path fill="none" stroke="#BDB9B9" stroke-width="1.8255" stroke-linecap="round" stroke-miterlimit="10" d="M73.5,70.9"/>
		<path fill="none" stroke="#BDB9B9" stroke-width="1.8255" stroke-linecap="round" stroke-miterlimit="10" d="M60.7,70.9"/>
		<path fill="none" stroke="#BDB9B9" stroke-width="2" stroke-linecap="round" stroke-miterlimit="10" d="M53.5,77.6"/>
	</g>
</g>
</svg>
