<?xml version="1.0" encoding="utf-8"?><!--Generator: Adobe Illustrator 18.1.0, SVG Export Plug-In. SVG Version: 6.00, Build 0--><!DOCTYPE svg PUBLIC "-//W3C//DTD SVG 1.1//EN" "http://www.w3.org/Graphics/SVG/1.1/DTD/svg11.dtd"><svg version="1.1" id="other_copy" xmlns="http://www.w3.org/2000/svg" xmlns:xlink="http://www.w3.org/1999/xlink" x="0px" y="0px" viewBox="0 0 112 112" enable-background="new 0 0 112 112" xml:space="preserve"><g><g><circle fill="#FCFCFC" cx="56" cy="56" r="50.9"/><g><g><path fill="#1176BD" d="M56,0C25.1,0,0,25.1,0,56s25.1,56,56,56s56-25.1,56-56S86.9,0,56,0z M56,105C29,105,7,83,7,56S29,7,56,7c27,0,49,22,49,49S83,105,56,105z"/></g></g></g><g><path fill="#FC9E88" d="M72.9,56.4c-2.2-2.1-5.5-3.2-10-3.3l-1.3,0V39c2.9,0.2,5,0.8,6.3,1.9c1.6,1.3,2.5,3.3,2.5,6v0.8H76v-0.9c0-8.4-4.8-12.9-14.4-13.4v-7.1c0-0.8-0.7-1.5-1.5-1.5c-0.8,0-1.5,0.7-1.5,1.5v7.1h-6.8v-7.1c0-0.8-0.7-1.5-1.5-1.5c-0.8,0-1.5,0.7-1.5,1.5v7.1c-4.1,0.1-7.3,1.2-9.5,3.4c-2.4,2.3-3.5,5.2-3.5,8.8v1.9c0,3.4,1.1,6,3.2,7.9c2.1,1.9,5,2.9,8.7,3l1.1,0v14.8c-5-0.6-7.5-3.4-7.5-8.2v-0.6h-5.6v1c0,8.3,4.4,12.7,13.1,13.4v7.1c0,0.8,0.7,1.5,1.5,1.5c0.8,0,1.5-0.7,1.5-1.5v-7h6.8v7c0,0.8,0.7,1.5,1.5,1.5c0.8,0,1.5-0.7,1.5-1.5v-7c2.5,0,4.6-0.3,6.4-0.8c1.9-0.6,3.5-1.4,4.7-2.4c1.2-1,2.1-2.3,2.7-3.8c0.6-1.5,0.9-3.1,0.9-5v-1.6C76.3,61.4,75.2,58.5,72.9,56.4z M58.6,38.9v14l-6.8-0.2V38.9H58.6z M43.1,51.2c-1.1-1-1.7-2.8-1.7-5.3c0-2.2,0.6-3.9,1.7-5.1c1.1-1.1,3-1.7,5.7-1.8v13.7C46.1,52.7,44.2,52.1,43.1,51.2z M51.8,73.3V58.4l6.8,0.2v14.7L51.8,73.3L51.8,73.3z M68.5,71.7c-1.4,1-3.7,1.6-6.8,1.6h-0.1V58.6l1.2,0c2.9,0,5,0.6,6.1,1.8c1.2,1.1,1.8,3,1.8,5.6C70.7,68.7,70,70.7,68.5,71.7z"/></g></g></svg>