<?xml version="1.0" encoding="utf-8"?><!--Generator: Adobe Illustrator 18.1.0, SVG Export Plug-In. SVG Version: 6.00, Build 0--><!DOCTYPE svg PUBLIC "-//W3C//DTD SVG 1.1//EN" "http://www.w3.org/Graphics/SVG/1.1/DTD/svg11.dtd"><svg version="1.1" id="other_copy" xmlns="http://www.w3.org/2000/svg" xmlns:xlink="http://www.w3.org/1999/xlink" x="0px" y="0px" viewBox="0 0 201 201" enable-background="new 0 0 201 201" xml:space="preserve"><g><g><g><circle fill="#DFDFDF" cx="100.5" cy="100.5" r="100.5"/></g><g><path fill="#FFFFFF" d="M169,98.3c1.3,39.6-31.1,72-70.8,70.8c-35.9-1.1-65.1-30.4-66.3-66.3c-1.3-39.6,31.1-72,70.8-70.8C138.6,33.1,167.9,62.4,169,98.3z"/></g></g><path fill="#5BB0EC" d="M138.6,123l-22.2-22.4l22.3-22.2L138.6,123L138.6,123z M66.4,127.2l22.4-22.4l4.9,4.9c1.8,1.8,4.1,3.1,6.8,3.1s4.9-1.2,6.8-3.1l4.9-4.9l22.4,22.4H66.4L66.4,127.2z M134.7,73.8l-32,32.1c-0.6,0.6-1.2,1-2.3,1s-1.7-0.4-2.3-1l-32-32.1H134.7L134.7,73.8z M62.4,78.5l22.3,22.2L62.4,123V78.5L62.4,78.5z"/></g></svg>