<?xml version="1.0" encoding="utf-8"?>
<!-- Generator: Adobe Illustrator 18.1.0, SVG Export Plug-In . SVG Version: 6.00 Build 0)  -->
<!DOCTYPE svg PUBLIC "-//W3C//DTD SVG 1.1//EN" "http://www.w3.org/Graphics/SVG/1.1/DTD/svg11.dtd">
<svg version="1.1" id="other_copy" xmlns="http://www.w3.org/2000/svg" xmlns:xlink="http://www.w3.org/1999/xlink" x="0px" y="0px"
	 viewBox="0 0 201 201" enable-background="new 0 0 201 201" xml:space="preserve">
<g>
	<g>
		<circle fill="#DFDFDF" cx="100.5" cy="100.5" r="100.5"/>
	</g>
	<g>
		<path fill="#FFFFFF" d="M169,98.3c1.3,39.6-31.1,72-70.8,70.8c-35.9-1.1-65.1-30.4-66.3-66.3c-1.3-39.6,31.1-72,70.8-70.8
			C138.6,33.1,167.9,62.4,169,98.3z"/>
	</g>
	<path fill="#FC9E88" d="M100.5,59.4c-17,0-30.8,13.8-30.8,30.8c0,19.8,22.2,44.5,25.7,48.2c1.4,1.6,2.6,3.1,5.1,3.1
		s3.7-1.5,5.1-3.1c3.5-3.8,25.7-28.5,25.7-48.2C131.3,73.2,117.5,59.4,100.5,59.4z M100.5,110.8c-11.3,0-20.5-9.2-20.5-20.5
		s9.2-20.5,20.5-20.5S121,78.9,121,90.2S111.8,110.8,100.5,110.8z M100.5,80c-5.7,0-10.3,4.6-10.3,10.3s4.6,10.3,10.3,10.3
		s10.3-4.6,10.3-10.3S106.2,80,100.5,80z"/>
</g>
</svg>
