<?xml version="1.0" encoding="utf-8"?><!--Generator: Adobe Illustrator 16.0.0, SVG Export Plug-In. SVG Version: 6.00, Build 0--><!DOCTYPE svg PUBLIC "-//W3C//DTD SVG 1.1//EN" "http://www.w3.org/Graphics/SVG/1.1/DTD/svg11.dtd"><svg version="1.1" id="Layer_1" xmlns="http://www.w3.org/2000/svg" xmlns:xlink="http://www.w3.org/1999/xlink" x="0px" y="0px" width="40px" height="40px" viewBox="0 0 40 40" enable-background="new 0 0 40 40" xml:space="preserve"><g><path fill="#C1C1C1" d="M39.5,36L29.4,25.9c1.9-2.6,3.1-5.9,3.1-9.4c0-8.8-7.2-16-16-16s-16,7.2-16,16s7.2,16,16,16c3.5,0,6.8-1.1,9.4-3.1L36,39.5L39.5,36z M16.5,27.5c-6.1,0-11-4.9-11-11c0-6.1,4.9-11,11-11c6.1,0,11,4.9,11,11C27.5,22.5,22.5,27.5,16.5,27.5"/></g></svg>