<?xml version="1.0" encoding="utf-8"?><!--Generator: Adobe Illustrator 18.1.0, SVG Export Plug-In. SVG Version: 6.00, Build 0--><!DOCTYPE svg PUBLIC "-//W3C//DTD SVG 1.1//EN" "http://www.w3.org/Graphics/SVG/1.1/DTD/svg11.dtd"><svg version="1.1" id="other_copy" xmlns="http://www.w3.org/2000/svg" xmlns:xlink="http://www.w3.org/1999/xlink" x="0px" y="0px" viewBox="0 0 168.7 109.9" enable-background="new 0 0 168.7 109.9" xml:space="preserve"><g><g><g><g><path fill="#FFFFFF" d="M138.3,55c0-28.4-24.1-51.5-53.9-51.5c-25.3,0-46.4,16.6-52.2,39C15.9,44.8,3.5,58.1,3.5,74.2c0,17.8,15.1,32.2,33.7,32.2h101.1c14.9,0,27-11.5,27-25.7C165.2,66.5,153.1,55,138.3,55z"/><path fill="#1176BD" d="M138.3,109.9H37.2C16.7,109.9,0,93.9,0,74.2c0-16.7,12.5-31.3,29.3-34.8C36.5,16.1,58.8,0,84.4,0c30.5,0,55.5,22.9,57.3,51.6c15.2,1.6,27.1,14,27.1,29C168.7,96.8,155.1,109.9,138.3,109.9z M84.4,7C61.2,7,41.1,22,35.5,43.4l-0.6,2.2L32.6,46C18,48.1,7,60.2,7,74.2c0,15.8,13.5,28.7,30.2,28.7h101.1c12.9,0,23.5-10,23.5-22.2c0-12.3-10.5-22.2-23.5-22.2h-3.5V55C134.8,28.5,112.2,7,84.4,7z"/></g></g></g><g><path fill="#5BAFEB" d="M111.2,79.6c0,8.2-7,13.3-15,11.7c-7.3-1.5-12.8-8.3-12.8-15.3c0-7,5.5-12.3,12.8-12C104.2,64.5,111.2,71.5,111.2,79.6z"/><path fill="#5BAFEB" d="M93.5,26.4c0,5.5-4.4,10.4-9.4,11c-4.8,0.5-8.4-3.1-8.4-8c0-4.9,3.7-9.8,8.5-10.8C89.2,17.4,93.5,20.9,93.5,26.4z"/><path fill="#5BAFEB" d="M67.3,66.1c0,3.4-2.3,5.9-5.1,5.6c-2.7-0.3-4.7-3.1-4.7-6.3c0-3.2,2.1-5.7,4.7-5.6C65,59.8,67.3,62.7,67.3,66.1z"/><path fill="#5BAFEB" d="M102.3,83.2L59.6,67l25.1-42.5L102.3,83.2z M64.6,65.2L97,77.5L83.6,33L64.6,65.2z"/></g></g></svg>