<?xml version="1.0" encoding="utf-8"?><!--Generator: Adobe Illustrator 18.1.0, SVG Export Plug-In. SVG Version: 6.00, Build 0--><!DOCTYPE svg PUBLIC "-//W3C//DTD SVG 1.1//EN" "http://www.w3.org/Graphics/SVG/1.1/DTD/svg11.dtd"><svg version="1.1" id="Layer_1" xmlns="http://www.w3.org/2000/svg" xmlns:xlink="http://www.w3.org/1999/xlink" x="0px" y="0px" viewBox="-38.9 190.1 311.9 274" enable-background="new -38.9 190.1 311.9 274" xml:space="preserve"><path fill="#C1272C" d="M163.6,199.5l100.3,105c6,5.8,9,13.7,9,22.4c0,8.7-3,16.5-9,22.4L163.6,454.7c-11.9,12.5-31.3,12.5-43.2,0c-11.9-12.5-11.9-32.7,0-45.2l48.2-50.4h-177c-16.9,0-30.6-14.3-30.6-32c0-17.7,13.7-32,30.6-32h177l-48.2-50.4c-11.9-12.5-11.9-32.7,0-45.2S151.6,187,163.6,199.5z"/></svg>