<?xml version="1.0" encoding="utf-8"?>
<!-- Generator: Adobe Illustrator 18.1.0, SVG Export Plug-In . SVG Version: 6.00 Build 0)  -->
<!DOCTYPE svg PUBLIC "-//W3C//DTD SVG 1.1//EN" "http://www.w3.org/Graphics/SVG/1.1/DTD/svg11.dtd">
<svg version="1.1" id="other_copy" xmlns="http://www.w3.org/2000/svg" xmlns:xlink="http://www.w3.org/1999/xlink" x="0px" y="0px"
	 viewBox="0 0 112 112" enable-background="new 0 0 112 112" xml:space="preserve">
<circle fill="#FCFCFC" cx="56" cy="56" r="50.9"/>
<g>
	<g>
		<path fill="#1176BD" d="M56,0C25.1,0,0,25.1,0,56s25.1,56,56,56s56-25.1,56-56S86.9,0,56,0z M56,105C29,105,7,83,7,56S29,7,56,7
			s49,22,49,49S83,105,56,105z"/>
	</g>
</g>
<g>
	<g>
		<path fill="#FC9E88" d="M56,42c-3.9,0-7,3.1-7,7v35c0,3.9,3.1,7,7,7s7-3.1,7-7V49C63,45.1,59.9,42,56,42z M56,35c3.9,0,7-3.1,7-7
			s-3.1-7-7-7s-7,3.1-7,7S52.1,35,56,35z"/>
	</g>
</g>
</svg>
