<?xml version="1.0" encoding="utf-8"?>
<!-- Generator: Adobe Illustrator 18.1.0, SVG Export Plug-In . SVG Version: 6.00 Build 0)  -->
<!DOCTYPE svg PUBLIC "-//W3C//DTD SVG 1.1//EN" "http://www.w3.org/Graphics/SVG/1.1/DTD/svg11.dtd">
<svg version="1.1" id="other_copy" xmlns="http://www.w3.org/2000/svg" xmlns:xlink="http://www.w3.org/1999/xlink" x="0px" y="0px"
	 viewBox="0 0 137.1 137.1" enable-background="new 0 0 137.1 137.1" xml:space="preserve">
<g>
	<path fill="#FFFFFF" d="M137.1,66.3c1.3,39.6-31.1,72-70.8,70.8C30.4,135.9,1.2,106.7,0,70.8C-1.2,31.2,31.2-1.2,70.8,0
		C106.7,1.2,135.9,30.4,137.1,66.3z"/>
	<path fill="#1176BD" d="M68.6,7c0.7,0,1.3,0,2,0c15.6,0.5,30.3,6.9,41.4,18.1s17.6,25.9,18.1,41.4c0.5,16.8-5.6,32.8-17.3,44.8
		c-11.7,12.1-27.4,18.7-44.2,18.7c-0.7,0-1.3,0-2,0c-15.6-0.5-30.3-6.9-41.4-18.1C13.9,100.9,7.5,86.2,7,70.6
		c-0.5-16.8,5.6-32.8,17.3-44.8C36,13.7,51.7,7,68.6,7L68.6,7 M68.6,0C30,0-1.2,31.9,0,70.8c1.1,35.9,30.4,65.1,66.3,66.3
		c0.8,0,1.5,0,2.2,0c38.6,0,69.8-31.9,68.5-70.8C135.9,30.4,106.7,1.2,70.8,0C70,0,69.3,0,68.6,0L68.6,0z"/>
</g>
<g>
	<g>
		<circle fill="#0074C4" cx="44" cy="74.8" r="8.8"/>
		<path fill="#0074C4" d="M31,102.4c2.7-6.8,9-9.4,14-9.4s11.4,2.5,14,9.3l7.2,0c-1.3-5-4.1-9.1-8.1-12c-3.7-2.7-8.4-4.2-13.2-4.2
			c-4.8,0-9.4,1.5-13.1,4.3c-3.9,2.9-6.7,7-8,12L31,102.4z"/>
	</g>
	<g>
		<circle fill="#FC9E88" cx="91.4" cy="74.7" r="8.8"/>
		<path fill="#FC9E88" d="M78.3,102.2c2.7-6.8,9-9.4,14-9.4s11.4,2.5,14,9.3l7.2,0c-1.3-5-4.1-9.1-8.1-12c-3.7-2.7-8.4-4.2-13.2-4.2
			c-4.8,0-9.4,1.5-13.1,4.3c-3.9,2.9-6.7,7-8,12L78.3,102.2z"/>
	</g>
	<g>
		<circle fill="#5BB0EC" cx="67.7" cy="33.5" r="8.8"/>
		<path fill="#5BB0EC" d="M54.3,61.1c2.7-6.8,9-9.4,14-9.4s11.4,2.5,14,9.3l7.2,0c-1.3-5-4.1-9.1-8.1-12c-3.7-2.7-8.4-4.2-13.2-4.2
			c-4.8,0-9.4,1.5-13.1,4.3c-3.9,2.9-6.7,7-8,12L54.3,61.1z"/>
	</g>
</g>
</svg>
