<?xml version="1.0" encoding="utf-8"?><!--Generator: Adobe Illustrator 18.1.0, SVG Export Plug-In. SVG Version: 6.00, Build 0--><!DOCTYPE svg PUBLIC "-//W3C//DTD SVG 1.1//EN" "http://www.w3.org/Graphics/SVG/1.1/DTD/svg11.dtd"><svg version="1.1" id="Layer_1" xmlns="http://www.w3.org/2000/svg" xmlns:xlink="http://www.w3.org/1999/xlink" x="0px" y="0px" viewBox="0 0 304 211.2" enable-background="new 0 0 304 211.2" xml:space="preserve"><polygon fill="#7785AB" points="126.9,205.1 0,168.1 0,43.3 126.9,6.5 "/><polygon fill="#7785AB" points="304,155.4 135.8,205.1 135.8,6.5 304,55.9 "/><path fill="#FFFFFF" d="M97.8,144.9c0,13.3-11.5,21.7-24.5,19c-11.9-2.4-20.8-13.5-20.8-24.8c0-11.4,9-20.1,20.9-19.5C86.5,120.3,97.9,131.6,97.8,144.9z"/><path fill="#FFFFFF" d="M69,58.1c0,9-7.1,17-15.4,17.9c-7.8,0.8-13.7-5-13.7-13.1c0-8.1,6-15.9,13.8-17.6C62,43.4,69,49.1,69,58.1z"/><path fill="#FFFFFF" d="M26.4,122.8c0,5.6-3.8,9.7-8.3,9.1c-4.3-0.5-7.7-5.1-7.7-10.3c0-5.2,3.4-9.3,7.7-9.2C22.6,112.6,26.4,117.2,26.4,122.8z"/><polygon fill="none" stroke="#FFFFFF" stroke-width="5.6041" stroke-miterlimit="10" points="53.7,62 79.1,146.1 17.9,122.9 "/><line opacity="0.43" fill="none" stroke="#FFFFFF" stroke-width="4.4525" stroke-linecap="round" stroke-miterlimit="10" x1="173.2" y1="43.3" x2="173.2" y2="163.8"/><line opacity="0.43" fill="none" stroke="#FFFFFF" stroke-width="4.4525" stroke-linecap="round" stroke-miterlimit="10" x1="199.3" y1="48.6" x2="199.3" y2="158.6"/><line opacity="0.43" fill="none" stroke="#FFFFFF" stroke-width="4.4525" stroke-linecap="round" stroke-miterlimit="10" x1="221.2" y1="53" x2="221.2" y2="154.2"/><line opacity="0.43" fill="none" stroke="#FFFFFF" stroke-width="4.4525" stroke-linecap="round" stroke-miterlimit="10" x1="239.9" y1="57" x2="239.9" y2="150.7"/><line opacity="0.43" fill="none" stroke="#FFFFFF" stroke-width="4.4525" stroke-linecap="round" stroke-miterlimit="10" x1="255.9" y1="60.3" x2="255.9" y2="147.6"/><line opacity="0.43" fill="none" stroke="#FFFFFF" stroke-width="4.4525" stroke-linecap="round" stroke-miterlimit="10" x1="269.9" y1="63.3" x2="269.9" y2="144.9"/><line opacity="0.43" fill="none" stroke="#FFFFFF" stroke-width="4.4525" stroke-linecap="round" stroke-miterlimit="10" x1="282.2" y1="65.8" x2="282.2" y2="142.5"/><line opacity="0.43" fill="none" stroke="#FFFFFF" stroke-width="4.4525" stroke-linecap="round" stroke-miterlimit="10" x1="293.1" y1="68.1" x2="293.1" y2="140.4"/><polygon fill="#7785AB" points="174,33.2 135.8,23.9 135.8,0.2 174,12.1 "/><polygon fill="#7785AB" points="304,65.5 292.4,62.7 292.4,48.7 304,52.3 "/><polygon fill="#7785AB" points="126.9,22.7 103.9,28.3 103.9,7.1 126.9,0 "/><polygon fill="#7785AB" points="10.2,51.7 0,54.1 0,38.9 10.2,35.7 "/><polygon fill="#7785AB" points="126.8,211.2 102.3,203.6 102.3,181.7 126.8,187.6 "/><polygon fill="#7785AB" points="9.6,175 0,172 0,157.1 9.6,159.4 "/><polygon fill="#7785AB" points="174,199.2 135.9,211.1 135.9,188.2 174,178.9 "/><polygon fill="#7785AB" points="303.9,158.7 292.3,162.3 292.3,150.6 303.9,147.7 "/><path fill="#7785AB" d="M53.1,28.7c0,2.5-1.9,5.1-4.2,5.7c-2.3,0.6-4.1-0.9-4.1-3.3c0-2.4,1.8-5,4.1-5.7C51.2,24.7,53.1,26.2,53.1,28.7z"/><path fill="#7785AB" d="M53.1,183.2c0,2.5-1.9,4-4.2,3.3c-2.3-0.7-4.1-3.2-4.1-5.7s1.8-3.9,4.1-3.3C51.2,178.1,53.1,180.7,53.1,183.2z"/></svg>